<?xml version="1.0" encoding="UTF-8"?>
<svg id="Camada_2" data-name="Camada 2" xmlns="http://www.w3.org/2000/svg" viewBox="0 0 401.39 309.14">
  <defs>
    <style>
      .cls-1 {
        fill: #fff;
      }
    </style>
  </defs>
  <g id="Camada_1-2" data-name="Camada 1">
    <path class="cls-1" d="M155.39,5.33h-27.06v286.18c0,3.56,1.03,6.77,3.08,9.63,2.05,2.87,3.75,4.45,5.13,4.72h-61.09c1.36-.27,3.14-1.85,5.33-4.72,2.18-2.87,3.28-6.08,3.28-9.63V5.33h-8.61c-17.77,0-32.67,6.35-44.69,19.07C18.72,37.1,8.47,56.03,0,81.18V0h156.62c17.49,0,32.45,2.46,44.89,7.38,12.44,4.92,22.68,12.64,30.75,23.16,8.06,10.53,14,23.99,17.83,40.39,3.82,16.4,5.74,35.94,5.74,58.63v85.69c0,17.5,3.28,32.12,9.84,43.87,6.56,11.75,14.69,20.57,24.4,26.44,9.7,5.88,20.29,8.81,31.78,8.81s22.07-2.94,31.77-8.81c9.7-5.87,17.84-14.69,24.4-26.44,6.56-11.75,9.84-26.37,9.84-43.87V56.58c0-17.76-4.65-30.81-13.94-39.15-9.3-8.33-22.96-14.15-41-17.43h68.47c-1.37.27-3.15,5.27-5.33,14.97-2.19,9.7-3.28,23.57-3.28,41.61v158.67c0,20.77-4.45,38.13-13.33,52.07-8.88,13.94-20.03,24.39-33.41,31.37-13.39,6.97-27.95,10.45-43.66,10.45s-30.28-3.48-43.67-10.45c-13.39-6.97-24.54-17.43-33.41-31.37-8.88-13.94-13.32-31.3-13.32-52.07v-86.92c0-6.01-.07-13.18-.21-21.52-.14-8.33-.75-17.08-1.85-26.24-1.1-9.15-2.8-18.18-5.12-27.06-2.33-8.88-5.54-16.94-9.63-24.19-4.1-7.24-9.43-13.05-15.99-17.42-6.56-4.37-14.49-6.56-23.78-6.56Z"/>
  </g>
</svg>