<?xml version="1.0" encoding="UTF-8"?>
<svg id="Camada_2" data-name="Camada 2" xmlns="http://www.w3.org/2000/svg" viewBox="0 0 181.01 68.89">
  <g id="Camada_1-2" data-name="Camada 1">
    <g>
      <path d="M32.99,1.13h-5.75v60.75c0,.76.22,1.44.65,2.05.43.61.8.94,1.09,1h-12.97c.29-.06.67-.39,1.13-1,.46-.61.7-1.29.7-2.05V1.13h-1.83c-3.77,0-6.93,1.35-9.49,4.05C3.98,7.88,1.8,11.9,0,17.23V0h33.25c3.71,0,6.89.52,9.53,1.57,2.64,1.04,4.82,2.69,6.53,4.92,1.71,2.23,2.97,5.09,3.79,8.57.81,3.48,1.22,7.63,1.22,12.45v18.19c0,3.71.7,6.82,2.09,9.31,1.39,2.5,3.12,4.37,5.18,5.61,2.06,1.25,4.31,1.87,6.75,1.87s4.68-.62,6.75-1.87c2.06-1.25,3.79-3.12,5.18-5.61,1.39-2.49,2.09-5.6,2.09-9.31V12.01c0-3.77-.99-6.54-2.96-8.31-1.97-1.77-4.87-3-8.7-3.7h14.54c-.29.06-.67,1.12-1.13,3.18-.46,2.06-.7,5-.7,8.83v33.68c0,4.41-.94,8.09-2.83,11.05-1.89,2.96-4.25,5.18-7.09,6.66-2.84,1.48-5.93,2.22-9.27,2.22s-6.43-.74-9.27-2.22c-2.84-1.48-5.21-3.7-7.09-6.66-1.89-2.96-2.83-6.64-2.83-11.05v-18.45c0-1.28-.01-2.8-.04-4.57-.03-1.77-.16-3.63-.39-5.57-.23-1.94-.6-3.86-1.09-5.74-.49-1.89-1.18-3.6-2.05-5.14-.87-1.54-2-2.77-3.4-3.7-1.39-.93-3.08-1.39-5.05-1.39Z"/>
      <path d="M134.56,0v17.23c-.35-1.91-.81-3.83-1.39-5.74s-1.35-3.64-2.31-5.18c-.96-1.54-2.12-2.79-3.48-3.74-1.36-.96-2.98-1.44-4.83-1.44h-5.75v60.75c0,.76.22,1.44.65,2.05.43.61.8.94,1.09,1h-12.97c.29-.06.67-.39,1.13-1,.46-.61.7-1.29.7-2.05V1.13h-1.83c-3.77,0-6.93,1.35-9.49,4.05-2.55,2.7-4.73,6.72-6.53,12.05V0h45Z"/>
      <path d="M181.01,0l-10.45,33.38c-.65,2-1.34,4.27-2.08,6.82-.74,2.55-1.6,5.14-2.56,7.79-.97,2.65-2.06,5.22-3.29,7.74-1.23,2.52-2.63,4.74-4.21,6.68-1.58,1.94-3.37,3.5-5.37,4.69-2,1.19-4.26,1.79-6.77,1.79-2.65,0-4.82-.37-6.53-1.11-1.71-.74-2.98-1.68-3.82-2.81-.84-1.13-1.29-2.36-1.35-3.68-.07-1.32.18-2.58.72-3.77.55-1.19,1.39-2.23,2.52-3.1,1.13-.87,2.47-1.37,4.01-1.5.9-.06,1.84,0,2.81.19.97.19,1.92.45,2.85.77.93.32,1.84.61,2.71.87.87.26,1.69.39,2.47.39,1.74,0,2.95-.36,3.63-1.06.68-.71,1.02-1.74,1.02-3.1s-.28-3.05-.82-5.08c-.55-2.03-1.24-4.37-2.08-7.01l-11.13-35.6c-.26-.77-.73-1.5-1.4-2.18-.68-.68-1.18-1.05-1.5-1.11h17.8c-.9,0-1.58.44-2.03,1.31-.45.87-.76,1.95-.92,3.24-.16,1.29-.16,2.68,0,4.16.16,1.48.43,2.87.82,4.16.84,2.84,1.74,5.8,2.71,8.9.97,3.1,1.85,6.06,2.66,8.9.81,2.84,1.47,5.43,1.98,7.79.51,2.36.71,4.21.58,5.56-.13,1.68-.44,3.18-.92,4.5-.48,1.32-1.18,2.44-2.08,3.34-1.49,1.61-2.95,2.64-4.4,3.1-1.45.45-2.87.64-4.26.58-1.39-.06-2.74-.26-4.06-.58-1.32-.32-2.56-.48-3.72-.48-1.93,0-3.31.69-4.11,2.08-.81,1.39-1.11,2.93-.92,4.64.19,1.71.89,3.26,2.08,4.64,1.19,1.39,2.82,2.08,4.89,2.08,2.32,0,4.42-.6,6.29-1.79,1.87-1.19,3.56-2.77,5.08-4.74,1.52-1.97,2.85-4.19,4.02-6.68,1.16-2.48,2.21-5,3.14-7.55.94-2.55,1.76-5.03,2.47-7.45.71-2.42,1.36-4.53,1.94-6.34.71-2.19,1.4-4.55,2.08-7.06s1.27-5,1.79-7.45c.51-2.45.85-4.82,1.02-7.11.16-2.29.03-4.31-.39-6.05-.42-1.74-1.18-3.13-2.27-4.16-1.1-1.03-2.68-1.55-4.74-1.55h14.13Z"/>
    </g>
  </g>
</svg>